<?xml version="1.0" encoding="UTF-8" standalone="no"?>
<!DOCTYPE svg PUBLIC "-//W3C//DTD SVG 1.1//EN" "http://www.w3.org/Graphics/SVG/1.1/DTD/svg11.dtd">
<svg width="100%" height="100%" viewBox="0 0 1600 160" version="1.1" xmlns="http://www.w3.org/2000/svg" xmlns:xlink="http://www.w3.org/1999/xlink" xml:space="preserve" xmlns:serif="http://www.serif.com/" style="fill-rule:evenodd;clip-rule:evenodd;stroke-linejoin:round;stroke-miterlimit:2;">
    <g transform="matrix(1.01389,0,0,1.01389,-68.3258,-425.315)">
        <g transform="matrix(160,0,0,160,55.5457,535.271)">
            <path d="M0.558,-0.594L0.209,-0.594L0.209,-0.374L0.539,-0.374L0.539,-0.269L0.209,-0.269L0.209,-0L0.093,-0L0.093,-0.7L0.558,-0.7L0.558,-0.594Z" style="fill:white;fill-rule:nonzero;"/>
        </g>
        <g transform="matrix(160,0,0,160,153.786,535.271)">
            <path d="M0.276,0.01C0.211,0.01 0.16,-0.011 0.123,-0.054C0.085,-0.097 0.066,-0.154 0.066,-0.225L0.066,-0.494L0.178,-0.494L0.178,-0.228C0.178,-0.185 0.189,-0.152 0.211,-0.127C0.233,-0.102 0.263,-0.089 0.301,-0.089C0.339,-0.089 0.37,-0.103 0.395,-0.13C0.419,-0.157 0.431,-0.192 0.431,-0.234L0.431,-0.494L0.543,-0.494L0.543,-0L0.44,-0C0.44,-0.035 0.441,-0.062 0.443,-0.081L0.44,-0.081C0.408,-0.02 0.353,0.01 0.276,0.01Z" style="fill:white;fill-rule:nonzero;"/>
        </g>
        <g transform="matrix(160,0,0,160,256.506,535.271)">
            <path d="M0.296,0.011C0.221,0.011 0.159,-0.012 0.11,-0.057C0.061,-0.102 0.036,-0.165 0.036,-0.246C0.036,-0.326 0.061,-0.389 0.111,-0.436C0.161,-0.482 0.224,-0.505 0.301,-0.505C0.368,-0.505 0.425,-0.488 0.471,-0.453L0.416,-0.369C0.383,-0.394 0.345,-0.406 0.301,-0.406C0.256,-0.406 0.22,-0.392 0.191,-0.363C0.162,-0.334 0.148,-0.296 0.148,-0.248C0.148,-0.198 0.162,-0.159 0.191,-0.131C0.219,-0.102 0.254,-0.088 0.297,-0.088C0.346,-0.088 0.389,-0.103 0.427,-0.134L0.478,-0.048C0.428,-0.009 0.367,0.011 0.296,0.011Z" style="fill:white;fill-rule:nonzero;"/>
        </g>
        <g transform="matrix(160,0,0,160,341.626,535.271)">
            <path d="M0.286,-0.255L0.53,-0L0.386,-0L0.267,-0.128C0.23,-0.167 0.203,-0.199 0.185,-0.225L0.182,-0.224C0.185,-0.185 0.186,-0.141 0.186,-0.094L0.186,-0L0.074,-0L0.074,-0.7L0.186,-0.7L0.186,-0.452C0.186,-0.381 0.185,-0.325 0.183,-0.283L0.186,-0.282C0.204,-0.307 0.226,-0.335 0.253,-0.366L0.364,-0.494L0.498,-0.494L0.286,-0.255Z" style="fill:white;fill-rule:nonzero;"/>
        </g>
        <g transform="matrix(160,0,0,160,429.626,535.271)">
            <path d="M0.181,-0.588C0.167,-0.575 0.15,-0.568 0.129,-0.568C0.108,-0.568 0.091,-0.575 0.078,-0.588C0.064,-0.601 0.057,-0.617 0.057,-0.636C0.057,-0.657 0.064,-0.674 0.077,-0.687C0.09,-0.7 0.108,-0.706 0.129,-0.706C0.15,-0.706 0.168,-0.7 0.181,-0.687C0.194,-0.674 0.201,-0.657 0.201,-0.636C0.201,-0.617 0.194,-0.601 0.181,-0.588ZM0.074,-0L0.074,-0.494L0.186,-0.494L0.186,-0L0.074,-0Z" style="fill:white;fill-rule:nonzero;"/>
        </g>
        <g transform="matrix(160,0,0,160,475.226,535.271)">
            <path d="M0.074,-0L0.074,-0.494L0.177,-0.494C0.177,-0.472 0.176,-0.442 0.174,-0.404L0.177,-0.404C0.207,-0.471 0.265,-0.504 0.35,-0.504C0.417,-0.504 0.468,-0.485 0.503,-0.446C0.538,-0.406 0.556,-0.351 0.556,-0.278L0.556,-0L0.444,-0L0.444,-0.268C0.444,-0.311 0.434,-0.345 0.413,-0.369C0.393,-0.393 0.363,-0.405 0.324,-0.405C0.284,-0.405 0.251,-0.391 0.225,-0.364C0.199,-0.337 0.186,-0.302 0.186,-0.26L0.186,-0L0.074,-0Z" style="fill:white;fill-rule:nonzero;"/>
        </g>
        <g transform="matrix(160,0,0,160,578.746,535.271)">
            <path d="M0.302,0.245C0.217,0.245 0.139,0.224 0.068,0.182L0.11,0.092C0.184,0.127 0.247,0.144 0.3,0.144C0.345,0.144 0.38,0.133 0.406,0.112C0.431,0.091 0.445,0.062 0.448,0.023C0.45,-0.014 0.452,-0.049 0.455,-0.081L0.453,-0.081C0.438,-0.054 0.416,-0.032 0.387,-0.015C0.358,0.002 0.322,0.01 0.281,0.01C0.208,0.01 0.149,-0.014 0.104,-0.061C0.059,-0.108 0.036,-0.17 0.036,-0.246C0.036,-0.323 0.059,-0.385 0.104,-0.433C0.149,-0.481 0.208,-0.505 0.28,-0.505C0.321,-0.505 0.358,-0.496 0.39,-0.478C0.422,-0.46 0.444,-0.438 0.456,-0.412L0.458,-0.412C0.457,-0.431 0.457,-0.459 0.457,-0.494L0.561,-0.494L0.561,0.001C0.561,0.079 0.538,0.139 0.493,0.181C0.448,0.224 0.384,0.245 0.302,0.245ZM0.298,-0.089C0.343,-0.089 0.379,-0.103 0.407,-0.133C0.435,-0.162 0.449,-0.199 0.449,-0.245C0.449,-0.292 0.435,-0.331 0.407,-0.361C0.379,-0.391 0.343,-0.406 0.3,-0.406C0.255,-0.406 0.219,-0.391 0.191,-0.362C0.162,-0.332 0.148,-0.294 0.148,-0.249C0.148,-0.202 0.162,-0.163 0.19,-0.134C0.218,-0.104 0.254,-0.089 0.298,-0.089Z" style="fill:white;fill-rule:nonzero;"/>
        </g>
        <g transform="matrix(160,0,0,160,683.706,535.271)">
            <path d="M0.721,-0.7L0.834,-0.7L0.834,-0L0.718,-0L0.718,-0.43C0.718,-0.458 0.719,-0.481 0.721,-0.5L0.719,-0.501C0.716,-0.494 0.699,-0.468 0.668,-0.423L0.483,-0.149L0.443,-0.149L0.26,-0.422C0.247,-0.44 0.23,-0.465 0.209,-0.497L0.206,-0.496C0.208,-0.477 0.209,-0.453 0.209,-0.426L0.209,-0L0.093,-0L0.093,-0.7L0.207,-0.7L0.464,-0.315L0.721,-0.7Z" style="fill:rgb(255,55,163);fill-rule:nonzero;"/>
        </g>
        <g transform="matrix(160,0,0,160,834.746,535.271)">
            <path d="M0.251,-0.504C0.414,-0.504 0.495,-0.439 0.495,-0.31L0.495,-0L0.397,-0C0.397,-0.035 0.398,-0.062 0.4,-0.081L0.397,-0.081C0.38,-0.052 0.356,-0.03 0.324,-0.015C0.291,0 0.257,0.008 0.221,0.008C0.168,0.008 0.124,-0.006 0.087,-0.033C0.05,-0.06 0.032,-0.1 0.032,-0.152C0.032,-0.205 0.051,-0.245 0.09,-0.274C0.129,-0.302 0.175,-0.316 0.23,-0.316C0.293,-0.316 0.344,-0.304 0.383,-0.281L0.383,-0.308C0.383,-0.376 0.336,-0.41 0.243,-0.41C0.199,-0.41 0.15,-0.4 0.096,-0.379L0.07,-0.466C0.129,-0.491 0.189,-0.504 0.251,-0.504ZM0.246,-0.084C0.281,-0.084 0.313,-0.094 0.34,-0.113C0.367,-0.132 0.382,-0.158 0.386,-0.193C0.347,-0.218 0.303,-0.231 0.252,-0.231C0.221,-0.231 0.196,-0.225 0.175,-0.212C0.154,-0.199 0.144,-0.181 0.144,-0.157C0.144,-0.133 0.154,-0.115 0.174,-0.102C0.195,-0.09 0.219,-0.084 0.246,-0.084Z" style="fill:rgb(255,55,163);fill-rule:nonzero;"/>
        </g>
        <g transform="matrix(160,0,0,160,928.506,535.271)">
            <path d="M0.296,0.011C0.221,0.011 0.159,-0.012 0.11,-0.057C0.061,-0.102 0.036,-0.165 0.036,-0.246C0.036,-0.326 0.061,-0.389 0.111,-0.436C0.161,-0.482 0.224,-0.505 0.301,-0.505C0.368,-0.505 0.425,-0.488 0.471,-0.453L0.416,-0.369C0.383,-0.394 0.345,-0.406 0.301,-0.406C0.256,-0.406 0.22,-0.392 0.191,-0.363C0.162,-0.334 0.148,-0.296 0.148,-0.248C0.148,-0.198 0.162,-0.159 0.191,-0.131C0.219,-0.102 0.254,-0.088 0.297,-0.088C0.346,-0.088 0.389,-0.103 0.427,-0.134L0.478,-0.048C0.428,-0.009 0.367,0.011 0.296,0.011Z" style="fill:rgb(255,55,163);fill-rule:nonzero;"/>
        </g>
        <g transform="matrix(160,0,0,160,1013.63,535.271)">
            <path d="M0.074,-0L0.074,-0.7L0.186,-0.7L0.186,-0.549C0.186,-0.495 0.183,-0.449 0.177,-0.41L0.179,-0.41C0.196,-0.437 0.219,-0.46 0.249,-0.477C0.279,-0.495 0.313,-0.504 0.35,-0.504C0.417,-0.504 0.468,-0.485 0.503,-0.446C0.538,-0.406 0.556,-0.351 0.556,-0.278L0.556,-0L0.444,-0L0.444,-0.268C0.444,-0.311 0.434,-0.345 0.413,-0.369C0.393,-0.393 0.363,-0.405 0.324,-0.405C0.284,-0.405 0.251,-0.391 0.225,-0.364C0.199,-0.337 0.186,-0.302 0.186,-0.26L0.186,-0L0.074,-0Z" style="fill:rgb(255,55,163);fill-rule:nonzero;"/>
        </g>
        <g transform="matrix(160,0,0,160,1117.15,535.271)">
            <path d="M0.181,-0.588C0.167,-0.575 0.15,-0.568 0.129,-0.568C0.108,-0.568 0.091,-0.575 0.078,-0.588C0.064,-0.601 0.057,-0.617 0.057,-0.636C0.057,-0.657 0.064,-0.674 0.077,-0.687C0.09,-0.7 0.108,-0.706 0.129,-0.706C0.15,-0.706 0.168,-0.7 0.181,-0.687C0.194,-0.674 0.201,-0.657 0.201,-0.636C0.201,-0.617 0.194,-0.601 0.181,-0.588ZM0.074,-0L0.074,-0.494L0.186,-0.494L0.186,-0L0.074,-0Z" style="fill:rgb(255,55,163);fill-rule:nonzero;"/>
        </g>
        <g transform="matrix(160,0,0,160,1162.75,535.271)">
            <path d="M0.074,-0L0.074,-0.494L0.177,-0.494C0.177,-0.472 0.176,-0.442 0.174,-0.404L0.177,-0.404C0.207,-0.471 0.265,-0.504 0.35,-0.504C0.417,-0.504 0.468,-0.485 0.503,-0.446C0.538,-0.406 0.556,-0.351 0.556,-0.278L0.556,-0L0.444,-0L0.444,-0.268C0.444,-0.311 0.434,-0.345 0.413,-0.369C0.393,-0.393 0.363,-0.405 0.324,-0.405C0.284,-0.405 0.251,-0.391 0.225,-0.364C0.199,-0.337 0.186,-0.302 0.186,-0.26L0.186,-0L0.074,-0Z" style="fill:rgb(255,55,163);fill-rule:nonzero;"/>
        </g>
        <g transform="matrix(160,0,0,160,1266.27,535.271)">
            <path d="M0.529,-0.252C0.529,-0.241 0.528,-0.226 0.527,-0.207L0.149,-0.207C0.152,-0.17 0.168,-0.14 0.196,-0.118C0.223,-0.096 0.258,-0.085 0.299,-0.085C0.359,-0.085 0.41,-0.103 0.452,-0.14L0.505,-0.066C0.481,-0.041 0.45,-0.021 0.412,-0.009C0.374,0.004 0.335,0.011 0.295,0.011C0.218,0.011 0.155,-0.012 0.108,-0.059C0.06,-0.106 0.036,-0.168 0.036,-0.247C0.036,-0.324 0.06,-0.386 0.109,-0.434C0.158,-0.481 0.22,-0.505 0.297,-0.505C0.366,-0.505 0.422,-0.483 0.465,-0.44C0.508,-0.397 0.529,-0.334 0.529,-0.252ZM0.293,-0.409C0.255,-0.409 0.223,-0.399 0.198,-0.38C0.173,-0.36 0.157,-0.331 0.15,-0.292L0.423,-0.292C0.42,-0.33 0.407,-0.359 0.384,-0.379C0.361,-0.399 0.33,-0.409 0.293,-0.409Z" style="fill:rgb(255,55,163);fill-rule:nonzero;"/>
        </g>
        <g transform="matrix(160,0,0,160,1359.55,535.271)">
            <path d="M0.252,0.014C0.177,0.014 0.104,-0.006 0.032,-0.046L0.078,-0.131C0.139,-0.098 0.197,-0.082 0.254,-0.082C0.281,-0.082 0.303,-0.088 0.32,-0.099C0.337,-0.11 0.345,-0.125 0.345,-0.144C0.345,-0.18 0.311,-0.201 0.244,-0.208C0.117,-0.221 0.053,-0.27 0.053,-0.355C0.053,-0.4 0.071,-0.436 0.108,-0.463C0.145,-0.49 0.193,-0.504 0.252,-0.504C0.317,-0.504 0.376,-0.489 0.431,-0.46L0.396,-0.374C0.345,-0.4 0.296,-0.413 0.249,-0.413C0.222,-0.413 0.2,-0.408 0.185,-0.398C0.17,-0.388 0.162,-0.374 0.162,-0.357C0.162,-0.34 0.169,-0.326 0.184,-0.317C0.199,-0.307 0.222,-0.3 0.255,-0.296C0.327,-0.287 0.378,-0.27 0.409,-0.247C0.44,-0.223 0.455,-0.188 0.455,-0.142C0.455,-0.095 0.436,-0.058 0.399,-0.029C0.362,-0 0.313,0.014 0.252,0.014Z" style="fill:rgb(255,55,163);fill-rule:nonzero;"/>
        </g>
        <g transform="matrix(160,0,0,160,1440.51,535.271)">
            <path d="M0.132,0.009C0.112,0.009 0.096,0.003 0.083,-0.01C0.07,-0.023 0.063,-0.039 0.063,-0.058C0.063,-0.077 0.07,-0.094 0.083,-0.107C0.096,-0.119 0.112,-0.126 0.132,-0.126C0.152,-0.126 0.169,-0.12 0.182,-0.107C0.195,-0.094 0.201,-0.078 0.201,-0.058C0.201,-0.039 0.195,-0.023 0.182,-0.01C0.169,0.003 0.153,0.009 0.132,0.009Z" style="fill:white;fill-rule:nonzero;"/>
        </g>
        <g transform="matrix(160,0,0,160,1486.91,535.271)">
            <path d="M0.074,-0L0.074,-0.494L0.178,-0.494C0.178,-0.469 0.177,-0.442 0.175,-0.413L0.177,-0.413C0.188,-0.439 0.206,-0.461 0.232,-0.478C0.258,-0.495 0.289,-0.504 0.325,-0.504C0.35,-0.504 0.373,-0.501 0.392,-0.494L0.363,-0.395C0.35,-0.4 0.333,-0.403 0.314,-0.403C0.275,-0.403 0.244,-0.39 0.221,-0.363C0.198,-0.336 0.186,-0.301 0.186,-0.256L0.186,-0L0.074,-0Z" style="fill:white;fill-rule:nonzero;"/>
        </g>
        <g transform="matrix(160,0,0,160,1555.55,535.271)">
            <path d="M0.276,0.01C0.211,0.01 0.16,-0.011 0.123,-0.054C0.085,-0.097 0.066,-0.154 0.066,-0.225L0.066,-0.494L0.178,-0.494L0.178,-0.228C0.178,-0.185 0.189,-0.152 0.211,-0.127C0.233,-0.102 0.263,-0.089 0.301,-0.089C0.339,-0.089 0.37,-0.103 0.395,-0.13C0.419,-0.157 0.431,-0.192 0.431,-0.234L0.431,-0.494L0.543,-0.494L0.543,-0L0.44,-0C0.44,-0.035 0.441,-0.062 0.443,-0.081L0.44,-0.081C0.408,-0.02 0.353,0.01 0.276,0.01Z" style="fill:white;fill-rule:nonzero;"/>
        </g>
    </g>
</svg>
