<?xml version="1.0" encoding="UTF-8" standalone="no"?>
<!DOCTYPE svg PUBLIC "-//W3C//DTD SVG 1.1//EN" "http://www.w3.org/Graphics/SVG/1.1/DTD/svg11.dtd">
<svg width="100%" height="100%" viewBox="0 0 512 512" version="1.1" xmlns="http://www.w3.org/2000/svg" xmlns:xlink="http://www.w3.org/1999/xlink" xml:space="preserve" xmlns:serif="http://www.serif.com/" style="fill-rule:evenodd;clip-rule:evenodd;stroke-linejoin:round;stroke-miterlimit:2;">
    <path d="M0,512L35.31,384C12.359,344.276 0,300.138 0,254.234C0,114.759 114.759,0 255.117,0C395.475,0 512,114.759 512,254.234C512,393.709 395.476,512 255.117,512C210.979,512 168.607,497.876 130.648,476.69L0,512Z" style="fill:rgb(237,237,237);fill-rule:nonzero;"/>
    <path d="M137.71,430.786L145.655,435.2C178.317,455.503 216.276,467.862 256,467.862C371.641,467.862 467.862,371.641 467.862,254.234C467.862,136.827 371.641,44.138 255.117,44.138C138.593,44.138 44.138,137.71 44.138,254.234C44.138,294.841 55.614,334.565 76.8,368.11L82.097,376.055L61.794,450.207L137.71,430.786Z" style="fill-rule:nonzero;"/>
    <path d="M187.145,135.945L170.373,135.062C165.076,135.062 159.78,136.828 156.249,140.359C148.304,147.421 135.063,160.662 131.532,178.318C125.353,204.801 135.063,236.58 158.015,268.359C180.967,300.138 225.105,351.338 302.787,373.407C327.504,380.469 346.925,376.055 362.815,366.345C375.174,358.4 383.118,346.042 385.767,332.8L388.415,320.441C389.298,316.91 387.532,312.496 384.001,310.731L328.387,285.131C324.856,283.365 320.442,284.248 317.794,287.779L295.725,316.027C293.959,317.793 291.311,318.675 288.663,317.793C273.656,312.496 223.339,291.31 195.973,238.345C195.09,235.697 195.09,233.048 196.856,231.283L218.042,207.449C219.808,204.801 220.69,201.27 219.808,198.621L194.208,141.242C193.324,138.593 190.676,135.945 187.145,135.945" style="fill:rgb(254,254,254);fill-rule:nonzero;"/>
</svg>
