<?xml version="1.0" encoding="UTF-8" standalone="no"?>
<!DOCTYPE svg PUBLIC "-//W3C//DTD SVG 1.1//EN" "http://www.w3.org/Graphics/SVG/1.1/DTD/svg11.dtd">
<svg width="100%" height="100%" viewBox="0 0 500 500" version="1.1" xmlns="http://www.w3.org/2000/svg" xmlns:xlink="http://www.w3.org/1999/xlink" xml:space="preserve" xmlns:serif="http://www.serif.com/" style="fill-rule:evenodd;clip-rule:evenodd;stroke-linejoin:round;stroke-miterlimit:2;">
    <g id="g7433" transform="matrix(1.65902,0,0,1.65902,-223.692,-413.61)">
        <path id="path7429" d="M426.529,329.255C423.137,316.657 413.204,306.723 400.606,303.331C377.589,297.032 285.524,297.032 285.524,297.032C285.524,297.032 193.459,297.032 170.442,303.089C158.086,306.481 147.91,316.657 144.518,329.255C138.462,352.271 138.462,400 138.462,400C138.462,400 138.462,447.971 144.518,470.745C147.91,483.343 157.844,493.277 170.442,496.669C193.701,502.968 285.524,502.968 285.524,502.968C285.524,502.968 377.589,502.968 400.606,496.911C413.204,493.519 423.137,483.586 426.529,470.987C432.586,447.971 432.586,400.242 432.586,400.242C432.586,400.242 432.829,352.271 426.529,329.255Z" style="fill:white;fill-rule:nonzero;"/>
        <path id="polygon7431" d="M256.208,355.906L256.208,444.094L332.768,400L256.208,355.906Z" style="fill-rule:nonzero;"/>
    </g>
</svg>
